custom-analysis
version=1
nRows=4
nColumns=98
inDegrees=no

This file contains tibia displacement and acting force.

Units are S.I. units (seconds, meters, Newtons, ...)
Angles are in degrees.

endheader
time	APT	SIT	knee_angle	aACL_R_force	pACL_R_force	aPCL_R_force	pPCL_R_force	aMCL_R_force	mMCL_R_force	pMCL_R_force	aLCL_R_force	mLCL_R_force	pLCL_R_force	aPCL_L_force	pPCL_L_force	aMCL_L_force	aLCL_L_force	aACL_R_length	pACL_R_length	aPCL_R_length	pPCL_R_length	aMCL_R_length	mMCL_R_length	pMCL_R_length	aLCL_R_length	mLCL_R_length	pLCL_R_length	aPCL_L_length	pPCL_L_length	aMCL_L_length	aLCL_L_length	aACL_R_strain	pACL_R_strain	aPCL_R_strain	pPCL_R_strain	aMCL_R_strain	mMCL_R_strain	pMCL_R_strain	aLCL_R_strain	mLCL_R_strain	pLCL_R_strain	aPCL_L_strain	pPCL_L_strain	aMCL_L_strain	aLCL_L_strain	femur_lat_meniscii_r.femur_lat_r.force.X	femur_lat_meniscii_r.femur_lat_r.force.Y	femur_lat_meniscii_r.femur_lat_r.force.Z	femur_lat_meniscii_r.femur_lat_r.torque.X	femur_lat_meniscii_r.femur_lat_r.torque.Y	femur_lat_meniscii_r.femur_lat_r.torque.Z	femur_lat_meniscii_r.meniscus_lat_r.force.X	femur_lat_meniscii_r.meniscus_lat_r.force.Y	femur_lat_meniscii_r.meniscus_lat_r.force.Z	femur_lat_meniscii_r.meniscus_lat_r.torque.X	femur_lat_meniscii_r.meniscus_lat_r.torque.Y	femur_lat_meniscii_r.meniscus_lat_r.torque.Z	femur_med_meniscii_r.femur_med_r.force.X	femur_med_meniscii_r.femur_med_r.force.Y	femur_med_meniscii_r.femur_med_r.force.Z	femur_med_meniscii_r.femur_med_r.torque.X	femur_med_meniscii_r.femur_med_r.torque.Y	femur_med_meniscii_r.femur_med_r.torque.Z	femur_med_meniscii_r.meniscus_med_r.force.X	femur_med_meniscii_r.meniscus_med_r.force.Y	femur_med_meniscii_r.meniscus_med_r.force.Z	femur_med_meniscii_r.meniscus_med_r.torque.X	femur_med_meniscii_r.meniscus_med_r.torque.Y	femur_med_meniscii_r.meniscus_med_r.torque.Z	femur_med_tibia_r.tibia_upper_r.force.X	femur_med_tibia_r.tibia_upper_r.force.Y	femur_med_tibia_r.tibia_upper_r.force.Z	femur_med_tibia_r.tibia_upper_r.torque.X	femur_med_tibia_r.tibia_upper_r.torque.Y	femur_med_tibia_r.tibia_upper_r.torque.Z	femur_med_tibia_r.femur_med_r.force.X	femur_med_tibia_r.femur_med_r.force.Y	femur_med_tibia_r.femur_med_r.force.Z	femur_med_tibia_r.femur_med_r.torque.X	femur_med_tibia_r.femur_med_r.torque.Y	femur_med_tibia_r.femur_med_r.torque.Z	femur_lat_tibia_r.tibia_upper_r.force.X	femur_lat_tibia_r.tibia_upper_r.force.Y	femur_lat_tibia_r.tibia_upper_r.force.Z	femur_lat_tibia_r.tibia_upper_r.torque.X	femur_lat_tibia_r.tibia_upper_r.torque.Y	femur_lat_tibia_r.tibia_upper_r.torque.Z	femur_lat_tibia_r.femur_lat_r.force.X	femur_lat_tibia_r.femur_lat_r.force.Y	femur_lat_tibia_r.femur_lat_r.force.Z	femur_lat_tibia_r.femur_lat_r.torque.X	femur_lat_tibia_r.femur_lat_r.torque.Y	femur_lat_tibia_r.femur_lat_r.torque.Z	femur_lat_meniscii_force_r	femur_med_meniscii_force_r	femur_lat_tibia_force_r	femur_med_tibia_force_r
      0.16038593	      0.01275557	      0.01625235	     54.40034852	      4.37435115	      0.00000000	    528.61322087	    346.23041688	      0.00000000	      0.00000000	      0.00000000	      0.00000000	      0.00000000	      0.00000000	      0.00000000	      0.00000000	      0.00000001	      0.00000000	      0.03167389	      0.02437515	      0.03466715	      0.03223991	      0.05922791	      0.05908152	      0.05629814	      0.05308670	      0.04847311	      0.04363049	      0.01525851	      0.01651186	      0.06550154	      0.04489616	      0.02155716	     -0.02727781	      0.11486786	      0.07869793	     -0.01331221	     -0.01190739	     -0.04137474	     -0.05163716	     -0.13930548	     -0.16644563	      0.00000079	     -0.32847694	      0.00000060	     -0.00000086	    109.56614529	    239.22534923	     26.66521185	    -16.47374845	      2.65431999	     42.49212045	   -109.56614529	   -239.22534923	    -26.66521185	      6.51165765	     -3.32964988	      4.50034010	     32.30825860	     33.38336373	     15.87455438	     -5.62772689	     -0.73436538	     12.95858799	    -32.30825860	    -33.38336373	    -15.87455438	     -0.45219336	      0.37737061	      0.16614718	   -671.56555088	   -687.82723574	    209.59391174	    -15.94617764	     15.33583240	     -0.69075189	    671.56555088	    687.82723574	   -209.59391174	     97.76459813	    -12.12510623	    273.38406184	      0.00000000	      0.00000000	      0.00000000	      0.00000000	      0.00000000	      0.00000000	      0.00000000	      0.00000000	      0.00000000	      0.00000000	      0.00000000	      0.00000000	    264.47030350	     49.09454170	      0.00000000	    983.88830829
      0.16070511	      0.01277994	      0.01631178	     54.57088735	      4.36311568	      0.00000000	    531.92705783	    347.79467796	      0.00000000	      0.00000000	      0.00000000	      0.00000000	      0.00000000	      0.00000000	      0.00000000	      0.00000000	      0.00000001	      0.00000000	      0.03167462	      0.02437653	      0.03468633	      0.03225096	      0.05924337	      0.05908383	      0.05629123	      0.05307914	      0.04845759	      0.04360949	      0.01525851	      0.01651186	      0.06550154	      0.04489616	      0.02158057	     -0.02722304	      0.11548479	      0.07906762	     -0.01305463	     -0.01186863	     -0.04149245	     -0.05177218	     -0.13958111	     -0.16684678	      0.00000079	     -0.32847694	      0.00000060	     -0.00000086	    113.55196711	    237.05235549	     26.15062219	    -16.18919203	      2.75922306	     44.16209706	   -113.55196711	   -237.05235549	    -26.15062219	      6.42175465	     -3.43156686	      4.34506280	     32.70920790	     33.15831073	     15.62253818	     -5.53211054	     -0.74255235	     13.11779472	    -32.70920790	    -33.15831073	    -15.62253818	     -0.45155499	      0.38899924	      0.16072514	   -675.36299147	   -685.45734261	    209.87029908	    -15.89111062	     15.40990750	     -0.73819108	    675.36299147	    685.45734261	   -209.87029908	     97.82340597	    -12.18708790	    274.92251206	      0.00000000	      0.00000000	      0.00000000	      0.00000000	      0.00000000	      0.00000000	      0.00000000	      0.00000000	      0.00000000	      0.00000000	      0.00000000	      0.00000000	    264.14337682	     49.12666843	      0.00000000	    984.89211654
      0.16094538	      0.01279820	      0.01635656	     54.69929166	      4.35226815	      0.00000000	    534.43502130	    349.02417445	      0.00000000	      0.00000000	      0.00000000	      0.00000000	      0.00000000	      0.00000000	      0.00000000	      0.00000000	      0.00000001	      0.00000000	      0.03167515	      0.02437756	      0.03470074	      0.03225926	      0.05925502	      0.05908561	      0.05628609	      0.05307338	      0.04844585	      0.04359366	      0.01525851	      0.01651186	      0.06550154	      0.04489616	      0.02159776	     -0.02718173	      0.11594804	      0.07934526	     -0.01286063	     -0.01183899	     -0.04157995	     -0.05187503	     -0.13978947	     -0.16714913	      0.00000079	     -0.32847694	      0.00000060	     -0.00000086	    113.35559475	    237.87962586	     26.40666762	    -16.31644816	      2.75477472	     44.06182990	   -113.35559475	   -237.87962586	    -26.40666762	      6.45061377	     -3.43320020	      4.40059422	     33.04163685	     33.03719871	     15.42440869	     -5.45512764	     -0.74952060	     13.25010061	    -33.04163685	    -33.03719871	    -15.42440869	     -0.45275142	      0.39870298	      0.15696283	   -678.48157673	   -682.54426839	    210.58308195	    -15.85096384	     15.48210943	     -0.81244587	    678.48157673	    682.54426839	   -210.58308195	     98.06229351	    -12.24055347	    276.19723689	      0.00000000	      0.00000000	      0.00000000	      0.00000000	      0.00000000	      0.00000000	      0.00000000	      0.00000000	      0.00000000	      0.00000000	      0.00000000	      0.00000000	    264.82733876	     49.20486407	      0.00000000	    985.16453584
      0.16121062	      0.01281826	      0.01640604	     54.84106040	      4.33912272	      0.00000000	    537.17615827	    350.32601919	      0.00000000	      0.00000000	      0.00000000	      0.00000000	      0.00000000	      0.00000000	      0.00000000	      0.00000000	      0.00000001	      0.00000000	      0.03167572	      0.02437871	      0.03471661	      0.03226840	      0.05926787	      0.05908758	      0.05628048	      0.05306695	      0.04843284	      0.04357617	      0.01525851	      0.01651186	      0.06550154	      0.04489616	      0.02161620	     -0.02713598	      0.11645833	      0.07965117	     -0.01264648	     -0.01180591	     -0.04167551	     -0.05198987	     -0.14002046	     -0.16748338	      0.00000079	     -0.32847694	      0.00000060	     -0.00000086	    113.23888204	    238.17486317	     26.94662984	    -16.54971140	      2.75391652	     43.99823543	   -113.23888204	   -238.17486317	    -26.94662984	      6.47507263	     -3.44433097	      4.44122460	     33.24668518	     32.92038562	     15.23583855	     -5.37998417	     -0.75356616	     13.33043375	    -33.24668518	    -32.92038562	    -15.23583855	     -0.45583200	      0.40541177	      0.15638017	   -680.56922132	   -681.31653783	    210.55259531	    -15.80693061	     15.52143396	     -0.79924052	    680.56922132	    681.31653783	   -210.55259531	     98.01363247	    -12.27353882	    277.02568961	      0.00000000	      0.00000000	      0.00000000	      0.00000000	      0.00000000	      0.00000000	      0.00000000	      0.00000000	      0.00000000	      0.00000000	      0.00000000	      0.00000000	    265.09702132	     49.20594111	      0.00000000	    985.74798256
